<svg xmlns="http://www.w3.org/2000/svg" viewBox="180 500 350 190">
  <g transform="translate(0,725) scale(0.1,-0.1)" fill="#1a1f4e">
    <path d="M4506 1524 c269 -350 542 -705 607 -790 l118 -154 -208 1 -208 0 -115 152 c-287 378 -761 992 -768 994 -4 1 -103 -124 -221 -278 -118 -153 -218 -278 -222 -277 -4 2 -53 63 -109 136 -56 73 -106 132 -110 130 -4 -2 -84 -101 -176 -222 l-168 -218 -33 38 c-18 22 -50 63 -70 91 -21 29 -41 53 -45 53 -4 0 -105 -127 -224 -282 -119 -156 -224 -291 -233 -301 -15 -16 -37 -17 -219 -15 l-201 3 355 463 c196 255 360 462 364 460 4 -2 43 -48 85 -103 43 -55 81 -104 85 -108 3 -4 100 114 215 263 114 149 211 267 215 263 4 -4 63 -80 130 -168 68 -88 124 -161 125 -163 1 -1 103 129 226 290 297 387 299 389 308 383 5 -3 229 -291 497 -641z"/>
    <path d="M4451 1045 c245 -319 458 -597 473 -617 l28 -38 -1386 0 c-1107 0 -1386 3 -1380 13 4 6 105 138 223 292 118 154 248 324 289 377 41 54 78 96 82 93 4 -2 38 -45 75 -94 l69 -90 48 62 c26 34 103 135 170 224 68 89 126 162 129 163 3 0 54 -63 113 -140 l107 -140 121 157 c67 87 166 216 221 286 l98 128 38 -48 c21 -26 238 -309 482 -628z"/>
  </g>
</svg>
